<svg width="62" height="40" viewBox="0 0 62 40" fill="none" xmlns="http://www.w3.org/2000/svg">
<mask id="mask0_152_11" style="mask-type:luminance" maskUnits="userSpaceOnUse" x="0" y="0" width="61" height="39">
<path d="M0.677084 0H60.6771V38.125H0.677084V0Z" fill="white"/>
</mask>
<g mask="url(#mask0_152_11)">
<path d="M57.6198 38.0677H4.38021C3.89583 38.0677 3.42708 37.974 2.97917 37.7865C2.53125 37.6042 2.13542 37.3385 1.79167 36.9948C1.44792 36.651 1.18229 36.2604 0.994794 35.8125C0.812502 35.3646 0.718751 34.8958 0.713543 34.4115V3.57812C0.713543 1.56771 2.36459 -0.078125 4.38021 -0.078125H57.6198C59.6354 -0.078125 61.2865 1.56771 61.2865 3.57812V34.4115C61.2865 36.4219 59.6354 38.0677 57.6198 38.0677Z" fill="white"/>
<path d="M57.401 38.0677H4.59896C2.45313 38.0677 0.713543 36.3594 0.713543 34.2552V3.73437C0.713543 1.63542 2.45313 -0.078125 4.59896 -0.078125H57.401C59.5469 -0.078125 61.2865 1.63542 61.2865 3.73437V34.2552C61.2865 36.3594 59.5469 38.0677 57.401 38.0677ZM4.59896 1.44792C3.3125 1.44792 2.26563 2.47396 2.26563 3.73437V34.2552C2.26563 35.5156 3.3125 36.5417 4.59896 36.5417H57.401C58.6875 36.5417 59.7344 35.5156 59.7344 34.2552V3.73437C59.7344 2.47396 58.6875 1.44792 57.401 1.44792H4.59896Z" fill="#A7A8AB" fill-opacity="0.25"/>
</g>
<path d="M13.5937 7.83862H14.7083V17.849H13.5937V7.83862ZM10.6771 7.83862H11.7917V17.849H10.6771V7.83862ZM22.2396 7.83862H25.2708V17.849H22.2396V7.83862ZM37.724 7.83862H39.2396V17.849H37.724V7.83862ZM41.4323 7.83862H42.9427V17.849H41.4323V7.83862ZM47.4948 7.83862H49.4427V17.849H47.4948V7.83862ZM45.3021 7.83862H45.9323V17.849H45.3021V7.83862ZM35.1198 7.83862H35.75V17.849H35.1198V7.83862ZM33.7708 7.83862H34.401V17.849H33.7708V7.83862ZM29.3958 7.83862H30.026V17.849H29.3958V7.83862ZM19.3385 7.83862H19.9687V17.849H19.3385V7.83862ZM17.4844 7.83862H18.651V17.849H17.4844V7.83862ZM10.6771 30.6563V20.3595H14.5521C15.3385 20.3595 15.9687 20.4636 16.4479 20.6667C16.9271 20.8751 17.2969 21.198 17.5677 21.6303C17.8385 22.0626 17.974 22.5157 17.974 22.9897C17.974 23.4324 17.8542 23.8438 17.6146 24.2345C17.3437 24.6511 16.9844 24.9688 16.5313 25.1772C17.1563 25.3595 17.6354 25.672 17.9687 26.1095C18.3073 26.547 18.474 27.0678 18.474 27.6667C18.474 28.1511 18.375 28.599 18.1667 29.0157C17.9948 29.3959 17.7396 29.7136 17.4115 29.974C17.1094 30.1928 16.7344 30.3647 16.2813 30.4792C15.7344 30.6042 15.1771 30.6667 14.6146 30.6563H10.6719H10.6771ZM12.0469 24.6876H14.2813C14.8854 24.6876 15.3229 24.6459 15.5833 24.5678C15.901 24.4845 16.1667 24.3126 16.3698 24.0522C16.5573 23.7813 16.6458 23.4792 16.6302 23.1511C16.6406 22.823 16.5573 22.5261 16.3854 22.2501C16.2187 21.9845 15.9844 21.8074 15.6823 21.7084C15.375 21.6147 14.8542 21.5678 14.1094 21.5678H12.0469V24.6876ZM12.0469 29.448H14.6198C15.0625 29.448 15.3698 29.4272 15.5521 29.3959C15.8646 29.3386 16.1302 29.2449 16.3385 29.1147C16.5677 28.9688 16.7396 28.7761 16.8594 28.5417C17 28.2917 17.0677 28.0001 17.0677 27.672C17.0677 27.2865 16.9687 26.9532 16.7656 26.6667C16.5625 26.3699 16.2865 26.172 15.9427 26.0678C15.5937 25.9532 15.0937 25.8959 14.4375 25.8959H12.0469V29.448ZM19.7187 26.922C19.7187 25.5417 20.1042 24.5261 20.875 23.8595C21.5156 23.3074 22.3021 23.0313 23.224 23.0313C24.2552 23.0313 25.0937 23.3699 25.75 24.0365C26.401 24.7084 26.7292 25.6355 26.7292 26.8178C26.7292 27.7761 26.5833 28.5313 26.2969 29.0782C26.0052 29.6355 25.5833 30.0574 25.0312 30.3595C24.4687 30.6667 23.8698 30.8178 23.2292 30.8126C22.1823 30.8126 21.3333 30.4792 20.6875 29.8126C20.0417 29.1407 19.7187 28.1772 19.7187 26.922ZM21.0156 26.9272C21.0156 27.8803 21.224 28.5938 21.6458 29.0678C22.0625 29.5417 22.5885 29.7761 23.2292 29.7761C23.8594 29.7761 24.3802 29.5417 24.8021 29.0626C25.2187 28.5886 25.4323 27.8595 25.4323 26.8855C25.4323 25.9636 25.2187 25.2657 24.7969 24.797C24.3854 24.3126 23.8646 24.073 23.2292 24.0834C22.5885 24.0834 22.0625 24.3178 21.6458 24.7917C21.224 25.2605 21.0156 25.974 21.0156 26.9272ZM28.1875 30.6563V20.3595H29.4531V30.6563H28.1875ZM36.5208 28.2397L37.8333 28.4115C37.6302 29.172 37.25 29.7605 36.6927 30.1824C36.1302 30.6042 35.4219 30.8126 34.5521 30.8126C33.4635 30.8126 32.599 30.4792 31.9583 29.8074C31.3177 29.1355 30.9948 28.198 30.9948 26.9845C30.9948 25.7345 31.3177 24.7605 31.9635 24.073C32.6146 23.3803 33.4531 23.0313 34.4844 23.0313C35.4792 23.0313 36.2969 23.3699 36.9271 24.047C37.5625 24.7292 37.8802 25.6824 37.8802 26.9115L37.8698 27.2449H32.2969C32.3437 28.0626 32.5781 28.6876 32.9948 29.1251C33.4167 29.573 33.9375 29.7917 34.5521 29.7761C35.0208 29.7761 35.4167 29.6511 35.7396 29.4063C36.0729 29.1615 36.3281 28.7709 36.5208 28.2345V28.2397ZM32.3698 26.2084H36.5365C36.4792 25.5834 36.3229 25.1095 36.0573 24.797C35.6562 24.297 35.1354 24.0522 34.4948 24.0678C33.9115 24.0678 33.4219 24.2605 33.026 24.6511C32.6302 25.0365 32.4115 25.5574 32.3698 26.2084ZM42.1927 29.5261L42.3698 30.6459C42.0521 30.7136 41.7344 30.7501 41.4115 30.7553C40.9531 30.7553 40.599 30.6824 40.3437 30.5365C40.0937 30.3907 39.9115 30.2032 39.8073 29.9636C39.7083 29.7292 39.6562 29.2292 39.6562 28.4688V24.172H38.7187V23.1928H39.6562V21.349L40.9219 20.5886V23.1928H42.1927V24.172H40.9219V28.5417C40.9219 28.9063 40.9479 29.1355 40.9896 29.2397C41.0365 29.349 41.1094 29.4324 41.2083 29.4897C41.3437 29.5574 41.4896 29.5886 41.6406 29.5782L42.1927 29.5261ZM42.9687 26.922C42.9687 25.5417 43.3542 24.5261 44.125 23.8595C44.7708 23.3074 45.5521 23.0313 46.4792 23.0313C47.5052 23.0313 48.349 23.3699 49 24.0365C49.651 24.7084 49.9792 25.6355 49.9792 26.8178C49.9792 27.7761 49.8333 28.5313 49.5469 29.0782C49.2604 29.6355 48.8385 30.0574 48.2865 30.3595C47.724 30.6667 47.1198 30.8178 46.4792 30.8126C45.4323 30.8126 44.5885 30.4792 43.9375 29.8126C43.2917 29.1407 42.9687 28.1772 42.9687 26.922ZM44.2656 26.9272C44.2656 27.8803 44.4792 28.5938 44.8958 29.0678C45.3177 29.5417 45.8437 29.7761 46.4792 29.7761C47.1094 29.7761 47.6354 29.5417 48.0573 29.0626C48.474 28.5886 48.6823 27.8595 48.6823 26.8855C48.6823 25.9636 48.4687 25.2657 48.0521 24.797C47.6406 24.3126 47.1146 24.073 46.4792 24.0834C45.8437 24.0834 45.3177 24.3178 44.8958 24.7917C44.4792 25.2605 44.2656 25.974 44.2656 26.9272Z" fill="#221F1F"/>
</svg>
