<svg width="60" height="39" viewBox="0 0 60 39" fill="none" xmlns="http://www.w3.org/2000/svg">
<mask id="mask0_152_30" style="mask-type:luminance" maskUnits="userSpaceOnUse" x="0" y="0" width="60" height="39">
<path d="M0 0H60V38.1458H0V0Z" fill="white"/>
</mask>
<g mask="url(#mask0_152_30)">
<path d="M55.8281 0H4.8177C2.10937 0 0.0364532 2.06771 0.0364532 4.77083V33.3802C0.0364532 36.0833 2.27083 38.1458 4.8177 38.1458H55.8281C58.5364 38.1458 60.6094 36.0833 60.6094 33.3802V4.77083C60.6094 2.06771 58.375 0 55.8281 0Z" fill="black" fill-opacity="0.07"/>
</g>
<path d="M55.828 1.58862C57.578 1.58862 59.0155 3.02091 59.0155 4.77091V33.3803C59.0155 35.1303 57.578 36.5574 55.828 36.5574H4.81763C3.06763 36.5574 1.63013 35.1303 1.63013 33.3803V4.77091C1.63013 3.02091 3.06763 1.58862 4.81763 1.58862H55.828Z" fill="white"/>
<path d="M19.0052 8.10425H13.7448C11.5156 8.26571 9.60417 9.06258 9.125 10.9688C8.80208 11.922 8.64583 13.0313 8.48437 14.1459C7.36979 19.3907 6.41146 24.797 5.29688 29.8803H45.7865C48.974 29.8803 51.0417 29.2449 51.6823 26.7032C52 25.5886 52.1615 24.3178 52.4792 23.047C53.4375 18.1199 54.5521 13.1928 55.5052 8.10425H19.0052Z" fill="#B3131B"/>
<path fill-rule="evenodd" clip-rule="evenodd" d="M10.2083 14.797H11.1718V17.7032H14.8385V14.797H15.802V21.823H14.8385V18.5417H11.1718V21.823H10.2083V14.797ZM17.1614 16.724H18.0416V21.823H17.1666V16.724H17.1614ZM17.1614 14.797H18.0416V15.7761H17.1666V14.797H17.1614ZM22.5208 20.7449C22.7864 20.4063 22.9218 19.9011 22.9218 19.2345C22.9218 18.823 22.8593 18.474 22.7447 18.1824C22.5208 17.6147 22.1093 17.3334 21.5155 17.3334C20.9166 17.3334 20.5051 17.6303 20.2864 18.2292C20.1562 18.6251 20.0989 19.0261 20.1093 19.4428C20.1093 19.8386 20.1666 20.1772 20.2864 20.4532C20.5103 20.9845 20.9218 21.2501 21.5155 21.2501C21.9374 21.2501 22.2708 21.0834 22.5208 20.7449ZM19.2812 16.724H20.1197V17.4063C20.2916 17.172 20.4791 16.9949 20.6822 16.8647C20.9739 16.6772 21.3176 16.5782 21.7083 16.5782C22.2916 16.5782 22.7864 16.8022 23.1926 17.2449C23.5989 17.6928 23.802 18.3282 23.802 19.1511C23.802 20.2657 23.5103 21.0678 22.927 21.5417C22.5468 21.8542 22.1197 22.0053 21.6301 22.0001C21.2447 22.0001 20.9166 21.9167 20.6562 21.7449C20.4583 21.6095 20.2864 21.4428 20.1405 21.2501V23.8699H19.2812V16.724ZM28.0103 16.8438C28.3541 17.0157 28.6145 17.2345 28.7916 17.5053C28.9635 17.7657 29.078 18.0678 29.1353 18.4115C29.1874 18.6459 29.2135 19.0209 29.2135 19.5417H25.4478C25.4635 20.0574 25.5885 20.4792 25.8176 20.7917C26.0468 21.1042 26.4062 21.2605 26.8853 21.2605C27.3385 21.2605 27.6978 21.1147 27.9687 20.8178C28.1249 20.6407 28.2291 20.4428 28.2916 20.2188H29.1405C29.1197 20.4063 29.0468 20.6147 28.9166 20.849C28.8072 21.0574 28.6666 21.2501 28.4947 21.4167C28.2291 21.672 27.9062 21.8438 27.5208 21.9324C27.2916 21.9845 27.052 22.0105 26.8176 22.0105C26.177 22.0105 25.6353 21.7761 25.1926 21.3126C24.7447 20.849 24.5208 20.198 24.5208 19.3595C24.5208 18.5417 24.7447 17.8699 25.1926 17.3595C25.6405 16.8438 26.2239 16.5886 26.9478 16.5886C27.3176 16.5886 27.6666 16.672 28.0103 16.8438ZM28.328 18.8542C28.3072 18.5417 28.2291 18.2397 28.0833 17.9636C27.8437 17.547 27.453 17.3386 26.8958 17.3386C26.4999 17.3282 26.1666 17.474 25.901 17.7657C25.6301 18.0522 25.4895 18.4167 25.4739 18.8542H28.328ZM30.2968 16.7032H31.1197V17.5886C31.1874 17.4167 31.3489 17.2084 31.6145 16.9584C31.8853 16.6876 32.2135 16.5678 32.5989 16.5938L32.7968 16.6095V17.5209C32.703 17.5001 32.6093 17.4949 32.5155 17.4949C32.078 17.4949 31.7447 17.6355 31.5103 17.9167C31.276 18.1928 31.1562 18.5157 31.1614 18.8803V21.823H30.2968V16.7032ZM36.9374 16.974C37.302 17.2553 37.5208 17.7397 37.5937 18.4272H36.7551C36.7135 18.1303 36.5989 17.8647 36.4062 17.6407C36.2239 17.4272 35.9322 17.323 35.5312 17.323C34.9791 17.323 34.5833 17.5938 34.3489 18.1303C34.1926 18.474 34.1145 18.9063 34.1145 19.4167C34.1145 19.9272 34.2239 20.3595 34.4426 20.7136C34.6614 21.0626 35.0051 21.2397 35.4687 21.2397C35.828 21.2397 36.1145 21.1303 36.3228 20.9115C36.5312 20.6928 36.677 20.3907 36.7551 20.0157H37.5937C37.4999 20.6928 37.2603 21.1876 36.8749 21.5053C36.4895 21.8178 35.9999 21.974 35.401 21.974C34.7291 21.974 34.1926 21.7292 33.7968 21.2397C33.3958 20.7501 33.1926 20.1407 33.1926 19.4063C33.1926 18.5053 33.4166 17.8074 33.8541 17.3074C34.2916 16.7865 34.8489 16.5365 35.526 16.5522C36.1041 16.5522 36.578 16.6928 36.9374 16.974ZM39.3958 21.0522C39.578 21.1928 39.7916 21.2657 40.0416 21.2657C40.3437 21.2657 40.6405 21.198 40.9218 21.0574C41.151 20.9584 41.3333 20.8074 41.4635 20.5938C41.5937 20.3855 41.6562 20.1563 41.6405 19.9115V19.2188C41.5155 19.297 41.3801 19.349 41.2343 19.3855C41.0728 19.4324 40.9114 19.4636 40.7447 19.4845L40.2239 19.547C39.9739 19.573 39.7395 19.6355 39.5208 19.7449C39.2499 19.8959 39.1197 20.1355 39.1197 20.4636C39.1197 20.7136 39.2082 20.9063 39.3958 21.0522ZM41.2135 18.7188C41.4114 18.698 41.5416 18.6147 41.6093 18.474C41.6562 18.3699 41.6718 18.2553 41.6666 18.1407C41.6666 17.849 41.5624 17.6355 41.3541 17.5053C41.1458 17.3699 40.8437 17.3074 40.453 17.3074C40.0051 17.3074 39.6822 17.4272 39.4947 17.672C39.3697 17.849 39.302 18.047 39.2864 18.2657H38.4843C38.4999 17.6355 38.703 17.198 39.0989 16.948C39.5208 16.6928 39.9791 16.5678 40.4739 16.5782C41.078 16.5782 41.5676 16.6928 41.9478 16.922C42.3228 17.1511 42.5051 17.5105 42.5051 17.9949V20.948C42.5051 21.0365 42.526 21.1095 42.5624 21.1615C42.5989 21.2136 42.677 21.2397 42.7968 21.2397C42.8905 21.2449 42.9843 21.2345 43.078 21.2136V21.849C42.9426 21.8907 42.8437 21.9115 42.7707 21.922C42.677 21.9324 42.578 21.9376 42.4843 21.9376C42.1874 21.9376 41.9687 21.8282 41.8385 21.6199C41.7551 21.474 41.703 21.3126 41.6874 21.1459C41.5103 21.3751 41.2551 21.5782 40.927 21.7449C40.5885 21.9167 40.2239 22.0053 39.8385 22.0001C39.3645 22.0001 38.9739 21.8542 38.6718 21.5626C38.3593 21.2709 38.2083 20.9115 38.2187 20.4845C38.2187 20.0053 38.3697 19.6407 38.6614 19.3751C38.9635 19.1147 39.3541 18.9532 39.8333 18.8959L41.2135 18.7188ZM43.9478 16.7032H44.7655V17.5886C44.8332 17.4167 44.9999 17.2084 45.2603 16.9584C45.5364 16.6876 45.8645 16.5678 46.2499 16.5938L46.4478 16.6095V17.5209C46.3541 17.5001 46.2551 17.4949 46.1614 17.4949C45.7291 17.4949 45.3958 17.6355 45.1614 17.9167C44.9218 18.1928 44.8072 18.5157 44.8072 18.8803V21.823H43.9478V16.7032ZM48.0885 20.7032C48.3228 21.073 48.6978 21.2605 49.2135 21.2605C49.6353 21.2605 49.9635 21.0886 50.1978 20.7449C50.4582 20.4011 50.5832 19.9063 50.5832 19.2657C50.5832 18.6199 50.453 18.1407 50.1874 17.8282C49.9374 17.5157 49.6093 17.3595 49.203 17.3647C48.7655 17.349 48.4166 17.5157 48.1457 17.8595C47.8749 18.1928 47.7395 18.6824 47.7395 19.323C47.7395 19.8699 47.8593 20.3334 48.0885 20.7032ZM50.0312 16.8595C50.1822 16.9532 50.3593 17.1251 50.552 17.3647V14.7761H51.3801V21.823H50.6041V21.1147C50.427 21.4063 50.1926 21.6355 49.8905 21.797C49.6145 21.9376 49.302 22.0105 48.9426 22.0105C48.3697 22.0105 47.8749 21.7657 47.4582 21.2865C47.0364 20.8074 46.828 20.1667 46.828 19.3699C46.828 18.6251 47.0208 17.9792 47.4062 17.4324C47.7864 16.8855 48.3332 16.6095 49.0416 16.6095C49.4322 16.6095 49.7603 16.6928 50.0312 16.8595Z" fill="white"/>
</svg>
