 <svg xmlns="http://www.w3.org/2000/svg" viewBox="0 0 2100 475" version="1.1">
            <path d="M 1403 56.046 C 1363.824 60.827, 1323.293 77.896, 1295 101.530 C 1257.154 133.144, 1231.535 179.700, 1223.482 231.500 C 1221.218 246.063, 1220.397 278.628, 1221.956 292.039 C 1228.304 346.642, 1261.928 382.624, 1317.160 393.918 C 1333.190 397.196, 1348.927 398.318, 1370.478 397.717 C 1403.332 396.802, 1424.578 391.799, 1462.582 376.025 L 1477.665 369.766 1486.980 331.633 C 1492.103 310.660, 1496.501 292.938, 1496.754 292.250 C 1497.081 291.362, 1495.853 291, 1492.516 291 C 1488.323 291, 1486.938 291.657, 1479.659 297.097 C 1463.236 309.371, 1439.376 322.289, 1423.659 327.418 C 1408.008 332.524, 1400.941 333.503, 1380 333.462 C 1361.544 333.426, 1360.072 333.281, 1352.500 330.738 C 1325.930 321.815, 1313.936 304.707, 1310.836 271.308 C 1308.026 241.025, 1314.731 205.698, 1328.194 179.853 C 1346.853 144.036, 1378.023 121.909, 1413.750 119.116 C 1450.755 116.224, 1477.468 126.327, 1506.606 154.236 C 1514.479 161.776, 1514.855 162, 1519.644 162 L 1524.576 162 1533.866 123.750 C 1538.976 102.713, 1543.371 84.730, 1543.634 83.788 C 1544.002 82.465, 1542.108 81.072, 1535.305 77.664 C 1516.921 68.452, 1494.377 61.560, 1470.500 57.850 C 1455.688 55.548, 1415.811 54.483, 1403 56.046 M 597.182 65.250 C 595.252 73.015, 522 390.822, 522 391.427 C 522 391.754, 541.229 391.904, 564.731 391.761 L 607.461 391.500 618.683 343 C 624.855 316.325, 630.396 292.197, 630.996 289.382 L 632.087 284.263 664.294 283.693 C 706.692 282.941, 726.581 280.277, 753 271.813 C 798.368 257.276, 831.275 228.353, 843.627 192.158 C 853.771 162.433, 851.851 127.328, 838.877 105.277 C 833.834 96.705, 820.949 84.316, 811.607 79.055 C 795.120 69.771, 771.995 64.114, 742 62.028 C 734.025 61.474, 698.416 61.015, 662.869 61.010 L 598.237 61 597.182 65.250 M 1017.609 63.250 C 1014.370 68.320, 821 391.293, 821 391.632 C 821 391.835, 840.931 392, 865.291 392 L 909.583 392 929 358 L 948.417 324 1009.209 324 C 1043.843 324, 1070 324.381, 1070 324.886 C 1070 327.159, 1077.117 389.650, 1077.501 390.750 C 1077.841 391.724, 1087.343 392, 1120.469 392 C 1145.582 392, 1163 391.625, 1163 391.083 C 1163 389.528, 1118.026 65.643, 1117.477 63.250 L 1116.962 61 1068.004 61 L 1019.046 61 1017.609 63.250 M 658.584 170.158 C 652.581 196.196, 647.466 218.512, 647.218 219.750 L 646.767 222 665.423 222 C 686.408 222, 699.746 220.808, 711.500 217.882 C 735.464 211.918, 752.158 196.850, 757.492 176.369 C 759.535 168.526, 759.443 154.602, 757.305 147.982 C 755.102 141.159, 747.904 133.257, 740.662 129.711 C 730.151 124.564, 724.661 123.773, 696 123.276 L 669.500 122.817 658.584 170.158 M 1015.881 205.822 L 982.261 264.500 1022.286 264.761 C 1044.299 264.905, 1062.535 264.798, 1062.810 264.523 C 1063.390 263.944, 1051.170 152.579, 1050.169 149.322 C 1049.637 147.591, 1042.614 159.163, 1015.881 205.822" stroke="none" fill="#fbdb04" fill-rule="evenodd"></path><path d="M 49.730 236.752 C 22.356 366.963, -0.032 473.837, -0.020 474.250 C -0.009 474.663, 452.832 475, 1006.293 475 L 2012.586 475 2056.321 238.250 C 2080.376 108.037, 2100.044 1.163, 2100.028 0.750 C 2100.013 0.337, 1649.888 0.001, 1099.750 0.002 L 99.500 0.003 49.730 236.752 M 1403 56.046 C 1363.824 60.827, 1323.293 77.896, 1295 101.530 C 1257.154 133.144, 1231.535 179.700, 1223.482 231.500 C 1221.218 246.063, 1220.397 278.628, 1221.956 292.039 C 1228.304 346.642, 1261.928 382.624, 1317.160 393.918 C 1333.190 397.196, 1348.927 398.318, 1370.478 397.717 C 1403.332 396.802, 1424.578 391.799, 1462.582 376.025 L 1477.665 369.766 1486.980 331.633 C 1492.103 310.660, 1496.501 292.938, 1496.754 292.250 C 1497.081 291.362, 1495.853 291, 1492.516 291 C 1488.323 291, 1486.938 291.657, 1479.659 297.097 C 1463.236 309.371, 1439.376 322.289, 1423.659 327.418 C 1408.008 332.524, 1400.941 333.503, 1380 333.462 C 1361.544 333.426, 1360.072 333.281, 1352.500 330.738 C 1325.930 321.815, 1313.936 304.707, 1310.836 271.308 C 1308.026 241.025, 1314.731 205.698, 1328.194 179.853 C 1346.853 144.036, 1378.023 121.909, 1413.750 119.116 C 1450.755 116.224, 1477.468 126.327, 1506.606 154.236 C 1514.479 161.776, 1514.855 162, 1519.644 162 L 1524.576 162 1533.866 123.750 C 1538.976 102.713, 1543.371 84.730, 1543.634 83.788 C 1544.002 82.465, 1542.108 81.072, 1535.305 77.664 C 1516.921 68.452, 1494.377 61.560, 1470.500 57.850 C 1455.688 55.548, 1415.811 54.483, 1403 56.046 M 597.182 65.250 C 595.252 73.015, 522 390.822, 522 391.427 C 522 391.754, 541.229 391.904, 564.731 391.761 L 607.461 391.500 618.683 343 C 624.855 316.325, 630.396 292.197, 630.996 289.382 L 632.087 284.263 664.294 283.693 C 706.692 282.941, 726.581 280.277, 753 271.813 C 798.368 257.276, 831.275 228.353, 843.627 192.158 C 853.771 162.433, 851.851 127.328, 838.877 105.277 C 833.834 96.705, 820.949 84.316, 811.607 79.055 C 795.120 69.771, 771.995 64.114, 742 62.028 C 734.025 61.474, 698.416 61.015, 662.869 61.010 L 598.237 61 597.182 65.250 M 1017.609 63.250 C 1014.370 68.320, 821 391.293, 821 391.632 C 821 391.835, 840.931 392, 865.291 392 L 909.583 392 929 358 L 948.417 324 1009.209 324 C 1043.843 324, 1070 324.381, 1070 324.886 C 1070 327.159, 1077.117 389.650, 1077.501 390.750 C 1077.841 391.724, 1087.343 392, 1120.469 392 C 1145.582 392, 1163 391.625, 1163 391.083 C 1163 389.528, 1118.026 65.643, 1117.477 63.250 L 1116.962 61 1068.004 61 L 1019.046 61 1017.609 63.250 M 658.584 170.158 C 652.581 196.196, 647.466 218.512, 647.218 219.750 L 646.767 222 665.423 222 C 686.408 222, 699.746 220.808, 711.500 217.882 C 735.464 211.918, 752.158 196.850, 757.492 176.369 C 759.535 168.526, 759.443 154.602, 757.305 147.982 C 755.102 141.159, 747.904 133.257, 740.662 129.711 C 730.151 124.564, 724.661 123.773, 696 123.276 L 669.500 122.817 658.584 170.158 M 1015.881 205.822 L 982.261 264.500 1022.286 264.761 C 1044.299 264.905, 1062.535 264.798, 1062.810 264.523 C 1063.390 263.944, 1051.170 152.579, 1050.169 149.322 C 1049.637 147.591, 1042.614 159.163, 1015.881 205.822" stroke="none" fill="#044483" fill-rule="evenodd"></path>
          </svg>