

          <svg xmlns="http://www.w3.org/2000/svg" viewBox="0 0 3500 791" version="1.1">
            <path d="M 166 0.414 C 166 0.641, 128.650 178.157, 83 394.892 C 37.350 611.627, 0 789.416, 0 789.978 C 0 790.674, 535.376 791, 1676.981 791 L 3353.962 791 3354.470 788.750 C 3355.531 784.049, 3500 2.138, 3500 1.095 C 3500 0.302, 3040.312 0, 1833 0 C 916.150 0, 166 0.186, 166 0.414 M 531.500 78.673 C 494.235 80.169, 463.800 83.962, 436.500 90.512 C 413.177 96.108, 397.207 101.934, 373.500 113.492 C 333.042 133.217, 304.920 157.460, 280.876 193.338 C 261.653 222.021, 251.658 251.516, 250.321 283.500 C 248.819 319.424, 258.997 346.921, 283.305 372.606 C 313.203 404.197, 361.901 426.442, 445 446.469 C 491.435 457.659, 518.176 466.540, 532.706 475.596 C 541.206 480.894, 547.905 488.526, 552.356 497.983 C 560.587 515.474, 554.711 539.399, 537.713 557.601 C 518.614 578.051, 494.869 587.612, 460.500 588.690 C 441.761 589.278, 428.471 587.639, 415.373 583.124 C 403.724 579.109, 396.784 574.754, 387.937 565.906 C 381.834 559.802, 379.446 556.465, 375.773 548.906 C 373.259 543.733, 370.488 536.505, 369.614 532.845 C 367.328 523.269, 365.897 504.908, 366.644 494.750 L 367.287 486 364.562 486 C 359.926 486, 179.629 497.038, 179.326 497.340 C 178.661 498.005, 177.016 521.284, 177.009 530.144 C 176.991 549.748, 180.513 573.075, 186.121 590.500 C 190.131 602.959, 201.655 625.633, 209.743 636.977 C 218.380 649.089, 235.351 666.296, 245.015 672.736 C 284.256 698.887, 342.149 711.021, 428 711.087 C 481.198 711.129, 520.306 706.276, 561.063 694.578 C 596.832 684.312, 627.460 669.072, 657.500 646.593 C 681.212 628.849, 708.212 599.182, 723.567 574 C 750.108 530.473, 761.320 477.704, 752.928 435.812 C 747.530 408.865, 736.513 388.453, 717.465 370.106 C 683.799 337.681, 632.003 317.127, 518 290.954 C 468.791 279.657, 451.395 272.608, 443.578 260.800 C 438.623 253.313, 437.474 247.081, 439.465 238.495 C 443.337 221.798, 453.086 210.242, 470.500 201.707 C 484.494 194.848, 498.413 191.998, 517.881 192.004 C 569.139 192.020, 592.709 212.599, 595.603 259.862 L 596.299 271.223 608.899 270.557 C 615.830 270.191, 632.975 269.251, 647 268.467 C 661.025 267.684, 689.600 266.131, 710.500 265.015 C 761.387 262.299, 780.225 261.108, 780.759 260.574 C 781.914 259.419, 782.134 230.167, 781.071 219 C 775.779 163.388, 752.899 128.254, 707.177 105.529 C 665.838 84.982, 605.212 75.714, 531.500 78.673 M 824.680 394.250 C 789.082 561.588, 759.967 698.837, 759.978 699.250 C 760.004 700.127, 1291 700.286, 1291 699.409 C 1291 699.085, 1297.316 668.597, 1305.035 631.659 C 1312.754 594.722, 1319.167 563.825, 1319.285 563 C 1319.475 561.673, 1300.118 561.442, 1151.912 561 L 984.325 560.500 994.634 511.500 C 1000.305 484.550, 1005.915 457.887, 1007.102 452.250 L 1009.261 442 1160.563 442 C 1303.798 442, 1311.893 441.907, 1312.378 440.250 C 1313.405 436.745, 1338 319.799, 1338 318.420 C 1338 317.200, 1316.773 317, 1187 317 C 1103.950 317, 1036 316.786, 1036 316.524 C 1036 315.986, 1054.669 225.736, 1055.501 222.250 L 1056.038 220 1218.960 220 C 1331.023 220, 1382.083 219.674, 1382.527 218.957 C 1383.212 217.847, 1409.985 93.372, 1409.994 91.250 C 1409.999 90.253, 1357.277 90, 1149.702 90 L 889.403 90 824.680 394.250 M 1483.519 91.214 C 1483.273 91.921, 1454.461 228.400, 1419.491 394.500 C 1384.521 560.600, 1355.670 697.303, 1355.376 698.285 C 1354.866 699.993, 1361.696 700.055, 1515.672 699.741 C 1661.252 699.445, 1677.733 699.250, 1689.500 697.684 C 1730.293 692.258, 1769.283 683.771, 1791.582 675.464 C 1816.965 666.009, 1849.636 646.631, 1873.500 626.877 C 1888.029 614.851, 1909.891 592.521, 1922.332 577 C 1949.669 542.894, 1964.215 515.545, 1979.504 469.500 C 1991.470 433.466, 2001.741 389.686, 2006.016 356.500 C 2009.858 326.673, 2010.319 282.784, 2007.050 258 C 2001.006 212.165, 1983.886 174.704, 1956.552 147.500 C 1929.205 120.282, 1896.171 103.911, 1852.731 96.051 C 1821.612 90.420, 1830.118 90.662, 1650.232 90.280 C 1515.379 89.994, 1483.881 90.171, 1483.519 91.214 M 2120.614 92.750 C 2120.327 93.713, 2091.248 230.175, 2055.995 396 C 2020.741 561.825, 1991.665 698.288, 1991.381 699.252 C 1990.889 700.918, 2003.814 700.991, 2256.616 700.752 L 2522.368 700.500 2536.639 632.500 C 2544.488 595.100, 2550.930 564.163, 2550.955 563.750 C 2550.980 563.337, 2475.625 563, 2383.500 563 C 2250.164 563, 2216.001 562.745, 2216.005 561.750 C 2216.007 561.063, 2221.563 534.175, 2228.350 502 L 2240.691 443.500 2392.151 443.247 L 2543.611 442.994 2556.474 382.247 C 2563.549 348.836, 2569.538 320.714, 2569.784 319.753 C 2570.208 318.097, 2562.347 317.993, 2418.815 317.753 L 2267.398 317.500 2277.412 269.253 L 2287.426 221.006 2450.887 220.753 L 2614.348 220.500 2628.142 156 C 2635.728 120.525, 2641.950 91.388, 2641.968 91.250 C 2641.986 91.112, 2524.805 91, 2381.567 91 C 2134.402 91, 2121.108 91.089, 2120.614 92.750 M 2697 91.686 C 2697 92.063, 2727.579 157.200, 2764.953 236.436 C 2802.328 315.671, 2833.040 380.972, 2833.203 381.549 C 2833.367 382.126, 2769.938 453.775, 2692.250 540.769 C 2614.563 627.764, 2551 699.179, 2551 699.470 C 2551 699.762, 2599.713 699.967, 2659.250 699.927 L 2767.500 699.854 2849.500 602.497 C 2894.600 548.951, 2931.725 505.117, 2932 505.087 C 2932.275 505.057, 2951.130 549.125, 2973.900 603.016 L 3015.300 701 3124.150 701 C 3184.017 701, 3233 700.725, 3233 700.390 C 3233 700.054, 3199.674 629.187, 3158.943 542.906 L 3084.886 386.033 3210.591 241.767 C 3279.728 162.420, 3337.667 96.038, 3339.344 94.250 L 3342.392 91 3236.298 91 L 3130.204 91 3056.970 184.250 C 3016.691 235.537, 2983.435 277.620, 2983.067 277.767 C 2982.699 277.914, 2967.376 238.764, 2949.016 190.767 C 2930.655 142.770, 2914.547 100.688, 2913.219 97.250 L 2910.806 91 2803.903 91 C 2745.106 91, 2697 91.309, 2697 91.686 M 1650.585 228.863 C 1650.264 229.382, 1634.704 303.313, 1616.007 393.153 C 1597.310 482.994, 1581.776 557.512, 1581.487 558.750 L 1580.962 561 1617.731 560.990 C 1656.907 560.979, 1671.639 560.150, 1689.962 556.925 C 1708.955 553.582, 1720.941 548.820, 1734.500 539.231 C 1747.673 529.915, 1763.277 512.800, 1772.028 498.070 C 1783.441 478.859, 1794.932 445.512, 1803.410 407 C 1811.275 371.276, 1814.014 350.214, 1814.042 325.272 C 1814.081 290.349, 1808.453 272.338, 1792.546 256.477 C 1783.592 247.549, 1774.386 242.147, 1760.500 237.673 C 1742.740 231.952, 1728.617 230.307, 1690.500 229.521 C 1675.100 229.203, 1659.950 228.713, 1656.834 228.432 C 1653.717 228.150, 1650.905 228.344, 1650.585 228.863" stroke="none" fill="#044483" fill-rule="evenodd"></path><path d="M 531.500 78.673 C 494.235 80.169, 463.800 83.962, 436.500 90.512 C 413.177 96.108, 397.207 101.934, 373.500 113.492 C 333.042 133.217, 304.920 157.460, 280.876 193.338 C 261.653 222.021, 251.658 251.516, 250.321 283.500 C 248.819 319.424, 258.997 346.921, 283.305 372.606 C 313.203 404.197, 361.901 426.442, 445 446.469 C 491.435 457.659, 518.176 466.540, 532.706 475.596 C 541.206 480.894, 547.905 488.526, 552.356 497.983 C 560.587 515.474, 554.711 539.399, 537.713 557.601 C 518.614 578.051, 494.869 587.612, 460.500 588.690 C 441.761 589.278, 428.471 587.639, 415.373 583.124 C 403.724 579.109, 396.784 574.754, 387.937 565.906 C 381.834 559.802, 379.446 556.465, 375.773 548.906 C 373.259 543.733, 370.488 536.505, 369.614 532.845 C 367.328 523.269, 365.897 504.908, 366.644 494.750 L 367.287 486 364.562 486 C 359.926 486, 179.629 497.038, 179.326 497.340 C 178.661 498.005, 177.016 521.284, 177.009 530.144 C 176.991 549.748, 180.513 573.075, 186.121 590.500 C 190.131 602.959, 201.655 625.633, 209.743 636.977 C 218.380 649.089, 235.351 666.296, 245.015 672.736 C 284.256 698.887, 342.149 711.021, 428 711.087 C 481.198 711.129, 520.306 706.276, 561.063 694.578 C 596.832 684.312, 627.460 669.072, 657.500 646.593 C 681.212 628.849, 708.212 599.182, 723.567 574 C 750.108 530.473, 761.320 477.704, 752.928 435.812 C 747.530 408.865, 736.513 388.453, 717.465 370.106 C 683.799 337.681, 632.003 317.127, 518 290.954 C 468.791 279.657, 451.395 272.608, 443.578 260.800 C 438.623 253.313, 437.474 247.081, 439.465 238.495 C 443.337 221.798, 453.086 210.242, 470.500 201.707 C 484.494 194.848, 498.413 191.998, 517.881 192.004 C 569.139 192.020, 592.709 212.599, 595.603 259.862 L 596.299 271.223 608.899 270.557 C 615.830 270.191, 632.975 269.251, 647 268.467 C 661.025 267.684, 689.600 266.131, 710.500 265.015 C 761.387 262.299, 780.225 261.108, 780.759 260.574 C 781.914 259.419, 782.134 230.167, 781.071 219 C 775.779 163.388, 752.899 128.254, 707.177 105.529 C 665.838 84.982, 605.212 75.714, 531.500 78.673 M 824.680 394.250 C 789.082 561.588, 759.967 698.837, 759.978 699.250 C 760.004 700.127, 1291 700.286, 1291 699.409 C 1291 699.085, 1297.316 668.597, 1305.035 631.659 C 1312.754 594.722, 1319.167 563.825, 1319.285 563 C 1319.475 561.673, 1300.118 561.442, 1151.912 561 L 984.325 560.500 994.634 511.500 C 1000.305 484.550, 1005.915 457.887, 1007.102 452.250 L 1009.261 442 1160.563 442 C 1303.798 442, 1311.893 441.907, 1312.378 440.250 C 1313.405 436.745, 1338 319.799, 1338 318.420 C 1338 317.200, 1316.773 317, 1187 317 C 1103.950 317, 1036 316.786, 1036 316.524 C 1036 315.986, 1054.669 225.736, 1055.501 222.250 L 1056.038 220 1218.960 220 C 1331.023 220, 1382.083 219.674, 1382.527 218.957 C 1383.212 217.847, 1409.985 93.372, 1409.994 91.250 C 1409.999 90.253, 1357.277 90, 1149.702 90 L 889.403 90 824.680 394.250 M 1483.519 91.214 C 1483.273 91.921, 1454.461 228.400, 1419.491 394.500 C 1384.521 560.600, 1355.670 697.303, 1355.376 698.285 C 1354.866 699.993, 1361.696 700.055, 1515.672 699.741 C 1661.252 699.445, 1677.733 699.250, 1689.500 697.684 C 1730.293 692.258, 1769.283 683.771, 1791.582 675.464 C 1816.965 666.009, 1849.636 646.631, 1873.500 626.877 C 1888.029 614.851, 1909.891 592.521, 1922.332 577 C 1949.669 542.894, 1964.215 515.545, 1979.504 469.500 C 1991.470 433.466, 2001.741 389.686, 2006.016 356.500 C 2009.858 326.673, 2010.319 282.784, 2007.050 258 C 2001.006 212.165, 1983.886 174.704, 1956.552 147.500 C 1929.205 120.282, 1896.171 103.911, 1852.731 96.051 C 1821.612 90.420, 1830.118 90.662, 1650.232 90.280 C 1515.379 89.994, 1483.881 90.171, 1483.519 91.214 M 2120.614 92.750 C 2120.327 93.713, 2091.248 230.175, 2055.995 396 C 2020.741 561.825, 1991.665 698.288, 1991.381 699.252 C 1990.889 700.918, 2003.814 700.991, 2256.616 700.752 L 2522.368 700.500 2536.639 632.500 C 2544.488 595.100, 2550.930 564.163, 2550.955 563.750 C 2550.980 563.337, 2475.625 563, 2383.500 563 C 2250.164 563, 2216.001 562.745, 2216.005 561.750 C 2216.007 561.063, 2221.563 534.175, 2228.350 502 L 2240.691 443.500 2392.151 443.247 L 2543.611 442.994 2556.474 382.247 C 2563.549 348.836, 2569.538 320.714, 2569.784 319.753 C 2570.208 318.097, 2562.347 317.993, 2418.815 317.753 L 2267.398 317.500 2277.412 269.253 L 2287.426 221.006 2450.887 220.753 L 2614.348 220.500 2628.142 156 C 2635.728 120.525, 2641.950 91.388, 2641.968 91.250 C 2641.986 91.112, 2524.805 91, 2381.567 91 C 2134.402 91, 2121.108 91.089, 2120.614 92.750 M 2697 91.686 C 2697 92.063, 2727.579 157.200, 2764.953 236.436 C 2802.328 315.671, 2833.040 380.972, 2833.203 381.549 C 2833.367 382.126, 2769.938 453.775, 2692.250 540.769 C 2614.563 627.764, 2551 699.179, 2551 699.470 C 2551 699.762, 2599.713 699.967, 2659.250 699.927 L 2767.500 699.854 2849.500 602.497 C 2894.600 548.951, 2931.725 505.117, 2932 505.087 C 2932.275 505.057, 2951.130 549.125, 2973.900 603.016 L 3015.300 701 3124.150 701 C 3184.017 701, 3233 700.725, 3233 700.390 C 3233 700.054, 3199.674 629.187, 3158.943 542.906 L 3084.886 386.033 3210.591 241.767 C 3279.728 162.420, 3337.667 96.038, 3339.344 94.250 L 3342.392 91 3236.298 91 L 3130.204 91 3056.970 184.250 C 3016.691 235.537, 2983.435 277.620, 2983.067 277.767 C 2982.699 277.914, 2967.376 238.764, 2949.016 190.767 C 2930.655 142.770, 2914.547 100.688, 2913.219 97.250 L 2910.806 91 2803.903 91 C 2745.106 91, 2697 91.309, 2697 91.686 M 1650.585 228.863 C 1650.264 229.382, 1634.704 303.313, 1616.007 393.153 C 1597.310 482.994, 1581.776 557.512, 1581.487 558.750 L 1580.962 561 1617.731 560.990 C 1656.907 560.979, 1671.639 560.150, 1689.962 556.925 C 1708.955 553.582, 1720.941 548.820, 1734.500 539.231 C 1747.673 529.915, 1763.277 512.800, 1772.028 498.070 C 1783.441 478.859, 1794.932 445.512, 1803.410 407 C 1811.275 371.276, 1814.014 350.214, 1814.042 325.272 C 1814.081 290.349, 1808.453 272.338, 1792.546 256.477 C 1783.592 247.549, 1774.386 242.147, 1760.500 237.673 C 1742.740 231.952, 1728.617 230.307, 1690.500 229.521 C 1675.100 229.203, 1659.950 228.713, 1656.834 228.432 C 1653.717 228.150, 1650.905 228.344, 1650.585 228.863" stroke="none" fill="#fbdb04" fill-rule="evenodd"></path>
          </svg>