<svg width="62" height="40" viewBox="0 0 62 40" fill="none" xmlns="http://www.w3.org/2000/svg">
<mask id="mask0_152_40" style="mask-type:luminance" maskUnits="userSpaceOnUse" x="0" y="0" width="61" height="39">
<path d="M0.677063 0.40625H60.6771V38.151H0.677063V0.40625Z" fill="white"/>
</mask>
<g mask="url(#mask0_152_40)">
<path d="M55.9375 0.40625H5.41665C2.72915 0.40625 0.677063 2.45312 0.677063 5.125V33.4323C0.677063 36.1042 2.89061 38.151 5.41665 38.151H55.9375C58.625 38.151 60.6771 36.1042 60.6771 33.4323V5.125C60.6771 2.45312 58.4635 0.40625 55.9375 0.40625Z" fill="black" fill-opacity="0.07"/>
</g>
<path d="M55.9375 1.97925C57.6771 1.97925 59.0989 3.39591 59.0989 5.12508V33.4324C59.0989 35.1615 57.6771 36.5782 55.9375 36.5782H5.41665C3.67706 36.5782 2.25519 35.1615 2.25519 33.4324V5.12508C2.25519 3.39591 3.67706 1.97925 5.41665 1.97925H55.9375Z" fill="white"/>
<path d="M45.3594 16.2916H44.8854C44.2552 17.8645 43.7813 18.651 43.3073 21.0103H46.3073C45.8334 18.651 45.8334 17.5468 45.3594 16.2916ZM49.9375 25.5676H47.2552C47.099 25.5676 47.099 25.5676 46.9375 25.4114L46.625 23.9947L46.4688 23.6822H42.6771C42.5209 23.6822 42.3594 23.6822 42.3594 23.9947L41.8854 25.4114C41.8854 25.5676 41.7292 25.5676 41.7292 25.5676H38.4115L38.7292 24.7812L43.3073 14.0885C43.3073 13.302 43.7813 12.9895 44.5729 12.9895H46.9375C47.099 12.9895 47.2552 12.9895 47.2552 13.302L49.4636 23.526C49.625 24.151 49.7813 24.6249 49.7813 25.2551C49.9375 25.4114 49.9375 25.4114 49.9375 25.5676ZM28.7813 25.0989L29.4167 22.2655C29.5729 22.2655 29.7292 22.4218 29.7292 22.4218C30.8334 22.8958 31.9427 23.2083 33.0469 23.052C33.3594 23.052 33.8334 22.8957 34.1511 22.7395C34.9427 22.4218 34.9427 21.6353 34.3073 21.0103C33.9948 20.6926 33.5209 20.5364 33.0469 20.2239C32.4167 19.9062 31.7813 19.5937 31.3073 19.1197C29.4167 17.5468 30.0469 15.3489 31.1511 14.2447C32.099 13.6145 32.5729 12.9895 33.8334 12.9895C35.7292 12.9895 37.7813 12.9895 38.7292 13.302H38.8854C38.7292 14.2447 38.5729 15.0312 38.2552 15.9739C37.4688 15.6614 36.6771 15.3489 35.8854 15.3489C35.4167 15.3489 34.9427 15.3489 34.4688 15.5051C34.1511 15.5051 33.9948 15.6614 33.8334 15.8176C33.5209 16.1353 33.5209 16.6041 33.8334 16.9218L34.625 17.5468C35.2552 17.8645 35.8854 18.177 36.3594 18.4895C37.1511 18.9635 37.9427 19.7499 38.099 20.6926C38.4115 22.1093 37.9427 23.3645 36.6771 24.3124C35.8854 24.9374 35.5729 25.2551 34.4688 25.2551C32.2552 25.2551 30.5209 25.4114 29.099 24.9374C28.9427 25.2551 28.9427 25.2551 28.7813 25.0989ZM23.2552 25.5676C23.4167 24.4687 23.4167 24.4687 23.5729 23.9947C24.3594 20.5364 25.1511 16.9218 25.7813 13.4583C25.9427 13.1458 25.9427 12.9895 26.2552 12.9895H29.099C28.7813 14.8749 28.4688 16.2916 27.9948 18.0208C27.5209 20.3801 27.0469 22.7395 26.4167 25.0989C26.4167 25.4114 26.2552 25.4114 25.9427 25.4114M8.57294 13.302C8.57294 13.1458 8.89064 12.9895 9.04689 12.9895H14.4167C15.2031 12.9895 15.8334 13.4583 15.9948 14.2447L17.4167 21.1666C17.4167 21.3228 17.4167 21.3228 17.5729 21.4791C17.5729 21.3228 17.7292 21.3228 17.7292 21.3228L21.0469 13.302C20.8906 13.1458 21.0469 12.9895 21.2031 12.9895H24.5209C24.5209 13.1458 24.5209 13.1458 24.3594 13.302L19.4688 24.7812C19.3073 25.0989 19.3073 25.2551 19.1511 25.4114C18.9948 25.5676 18.6771 25.4114 18.3646 25.4114H15.9948C15.8334 25.4114 15.6771 25.4114 15.6771 25.0989L13.1511 15.3489C12.8386 15.0312 12.3646 14.5624 11.7292 14.401C10.7813 13.9322 9.04689 13.6145 8.72919 13.6145L8.57294 13.302Z" fill="#142688"/>
</svg>
